<svg xmlns="http://www.w3.org/2000/svg" width="11.037" height="8.547" viewBox="0 0 11.037 8.547"><defs><style>.a{fill:#aabcc3;}</style></defs><path class="a" d="M41,268.123a.967.967,0,0,0,1,.932h9.024a.98.98,0,0,0,1.014-.932V265H41Z" transform="translate(-41 -260.508)"/><path class="a" d="M51.023,91.694H49.008v-.8A.944.944,0,0,0,48,90h-2.8a.968.968,0,0,0-1.037.889v.8H42a.933.933,0,0,0-1,.889V94H52.037V92.583A.946.946,0,0,0,51.023,91.694Zm-3.324,0H45.492v-.423c0-.129.109-.193.248-.193h1.712c.139,0,.248.064.248.193Z" transform="translate(-41 -90)"/></svg>